<svg width="136" height="34" viewBox="0 0 136 34" fill="none" xmlns="http://www.w3.org/2000/svg">
<path fill-rule="evenodd" clip-rule="evenodd" d="M56.2917 23.5192H56.1804C54.1111 23.4976 52.5338 22.7613 51.4851 21.3353C50.6175 20.1469 50.1504 18.4965 50.1687 16.6815C50.2119 12.4898 53.212 9.33188 57.1494 9.33188H57.2258C58.3909 9.34351 59.2519 9.60944 60.3006 10.2743L60.9655 10.6981V7.40389C60.9655 6.62771 60.7095 6.13574 60.3006 5.86483C60.1421 5.75915 59.9881 5.68933 59.849 5.62627C59.5024 5.46917 59.2485 5.35407 59.2485 4.83103C59.2485 4.29585 59.699 4 60.3954 4H62.5195C63.9484 4 63.9483 4.18394 63.9472 5.93406L63.9472 6.08588C63.9472 9.72911 63.9621 20.6605 63.9621 20.6605C63.9621 21.5584 64.0633 21.6292 64.34 21.8231L64.3411 21.8239C64.455 21.905 64.5966 21.9549 64.7373 22.0045C65.0464 22.1134 65.3516 22.221 65.3516 22.6549C65.3516 23.2865 64.9428 23.2865 64.1583 23.2865H62.2801C61.2879 23.2682 61.1749 22.9524 61.1599 22.271V21.7209C61.1599 21.7209 59.5793 23.5192 56.2917 23.5192ZM57.4885 10.9806C56.3839 10.9556 55.3323 11.4534 54.6514 12.3236H54.6431C53.8769 13.2909 53.4797 14.5192 53.4614 16.3507C53.4231 19.8859 54.9888 21.8106 57.5351 21.8355H57.5667C59.3617 21.8355 60.8758 20.5607 60.8908 19.025L60.9456 14.0388C60.9815 13.172 60.6131 12.3376 59.9484 11.7801C59.3401 11.2732 58.4808 10.9906 57.5301 10.9806H57.4885ZM113.28 23.5192H113.171C111.11 23.4976 109.532 22.7613 108.489 21.3353C107.623 20.1469 107.156 18.4965 107.174 16.6815C107.219 12.4898 110.219 9.33188 114.154 9.33188H114.231C115.396 9.34351 116.259 9.60944 117.307 10.2743L117.972 10.6981V7.40389C117.972 6.62771 117.718 6.13574 117.307 5.86483C117.149 5.75905 116.995 5.6892 116.856 5.62609C116.511 5.46908 116.257 5.35387 116.257 4.83103C116.257 4.29585 116.709 4 117.404 4H119.528C120.957 4 120.957 4.18394 120.956 5.93406L120.956 6.08588C120.956 9.72911 120.971 20.6605 120.971 20.6605C120.971 21.5584 121.072 21.6292 121.348 21.8231L121.35 21.8239C121.463 21.9051 121.604 21.955 121.745 22.0047C122.053 22.1135 122.358 22.2212 122.358 22.6549C122.358 23.2865 121.951 23.2865 121.167 23.2865H119.27C118.278 23.2682 118.167 22.9524 118.15 22.271V21.7209C118.15 21.7209 116.569 23.5192 113.28 23.5192ZM114.477 10.9807C113.373 10.9544 112.321 11.4525 111.642 12.3236C110.875 13.2909 110.476 14.5192 110.448 16.3508C110.41 19.886 111.976 21.8106 114.52 21.8356H114.553C116.347 21.8356 117.861 20.5608 117.878 19.025L117.932 14.0389C117.969 13.1719 117.6 12.3373 116.935 11.7801C116.327 11.2732 115.469 10.9906 114.519 10.9807H114.477ZM84.5549 23.5192H84.6313C86.234 23.5011 87.8034 23.0596 89.1804 22.2394C90.3588 21.5297 91.1549 20.6206 91.1616 19.979C91.1638 19.8313 91.1066 19.6888 91.0029 19.5835C90.8992 19.4782 90.7576 19.4189 90.6098 19.4189C90.2548 19.4107 90.0983 19.5582 89.8422 19.7996L89.8369 19.8045L89.812 19.8294L89.7813 19.8582C89.7415 19.8956 89.7013 19.9334 89.6591 19.9691C88.2995 21.1757 87.1095 21.6727 85.4158 21.7425H85.4059C83.2685 21.7209 81.6945 20.4278 81.2507 18.3103L81.146 17.8117L81.6579 17.7835C87.7161 17.451 90.9422 15.8904 90.9887 13.2577C91.02 12.3996 90.6945 11.5668 90.0895 10.9574C88.9494 9.78231 87.0081 9.34852 85.5721 9.33356H85.4374C80.4513 9.33356 77.4197 12.0909 77.3416 16.7081C77.3366 20.5524 80.4346 23.4777 84.5549 23.5192ZM80.9864 15.9452C81.018 14.0372 81.6097 12.5746 82.6069 11.5773C83.3062 10.8658 84.2688 10.4753 85.2662 10.4987H85.3094C86.0158 10.4987 86.6009 10.7214 87.0014 11.1219C87.402 11.5225 87.6147 12.0992 87.6081 12.8123C87.5798 15.5812 83.7554 16.1663 81.4801 16.3907L80.9814 16.4389L80.9864 15.9452ZM48.7227 16.4837C48.6845 20.4859 45.4767 23.5042 41.2651 23.5042H41.177C36.9121 23.4594 33.7243 20.3746 33.7625 16.3275C33.8024 12.3252 37.0085 9.30695 41.2219 9.30695H41.3083C45.5748 9.35182 48.7626 12.4366 48.7227 16.4837ZM41.29 10.8277C38.3549 10.8277 37.2629 14.2798 37.2429 16.3574V16.364C37.208 19.9125 38.9765 21.9518 41.1903 21.9701H41.2252C43.4075 21.9701 45.2009 19.9873 45.2358 16.4405C45.2707 12.8936 43.5006 10.8277 41.29 10.8277ZM24.9519 9.30695H24.8572C20.6455 9.30695 17.4378 12.3252 17.3995 16.3275C17.3597 20.3746 20.5475 23.4594 24.814 23.5042H24.9087C29.1204 23.5042 32.3281 20.4859 32.368 16.4837C32.4129 12.4366 29.2184 9.35182 24.9519 9.30695ZM24.9103 21.9768H24.8737C22.5618 21.9519 20.7186 19.9125 20.7502 16.364C20.7718 14.2864 21.9136 10.8344 24.9801 10.8344C27.2887 10.8344 29.1352 12.9003 29.1003 16.4471C29.0654 19.9939 27.1973 21.9768 24.9103 21.9768ZM15.4865 5.99945C15.9759 5.90335 16.482 6.04311 16.8527 6.37674C17.2541 6.70549 17.4906 7.19423 17.4992 7.71304C17.4725 8.24259 17.2127 8.73312 16.7895 9.05265L14.2599 11.0787C14.0935 11.194 13.9855 11.376 13.964 11.5773C13.9319 11.7522 13.9788 11.9323 14.092 12.0693C15.9515 14.1714 16.334 17.1978 15.056 19.6965C13.4405 22.9308 9.83715 24.3203 6.36178 23.0887C6.17529 23.0226 5.9724 23.0185 5.78339 23.0771C5.5242 23.1592 5.43186 23.285 5.25866 23.5208L5.24156 23.5441L4.15125 24.9984C4.15125 24.9984 3.23379 26.1403 4.68145 26.0821C8.19005 25.9441 9.10584 25.9441 10.9856 26.0705C14.0471 26.2799 15.3967 28.276 15.3967 29.8666C15.3967 31.748 14.1967 33.7874 10.9823 33.7874C8.56069 33.7276 7.09143 33.7126 4.58671 33.7525C4.22891 33.7584 3.89501 33.7679 3.61901 33.7757L3.61881 33.7757C3.35515 33.7831 3.14435 33.789 3.01606 33.789C2.19168 33.789 1.10636 33.573 1.09306 32.5508C1.08309 31.7065 1.81606 31.2527 2.3795 31.1929C2.87732 31.1398 3.32424 31.2002 3.81553 31.2667H3.81555H3.81556L3.81562 31.2667L3.81568 31.2667L3.81574 31.2667C4.10843 31.3063 4.41688 31.348 4.76122 31.3691C4.97566 31.382 5.18519 31.3972 5.4004 31.4127H5.40043H5.40045H5.40047H5.4005C6.01591 31.4572 6.6777 31.5051 7.63326 31.5137C8.1287 31.5197 8.51295 31.5261 8.82109 31.5313C9.62731 31.545 9.91264 31.5498 10.3058 31.5137C11.7518 31.3841 12.4283 30.8057 12.4283 29.9181C12.4283 28.9857 11.7518 28.4538 10.4604 28.2793C8.64727 28.0331 7.75902 28.0902 6.14845 28.1937C5.60648 28.2286 4.98272 28.2687 4.21441 28.3043C3.5097 28.3375 1.37561 28.3342 1.1047 26.5741C1.0432 26.0921 1.01993 25.281 2.04044 23.8799L2.90969 22.7164C3.32687 22.148 3.58449 21.676 2.97119 20.9098C2.97119 20.9098 2.51911 20.3679 2.36786 20.1702C0.9601 18.3303 0.616054 15.4416 1.8493 13.0831C3.67756 9.59282 8.10861 8.14517 11.5507 10.0914C11.8449 10.2576 12.0593 10.3275 12.3103 10.2809C12.5436 10.2429 12.6242 10.0875 12.7309 9.88166C12.7549 9.83533 12.7802 9.78644 12.8089 9.73576C12.8135 9.72477 13.0885 9.19719 13.4287 8.54436L13.429 8.54393L13.4292 8.54353C13.7064 8.01159 14.0269 7.39664 14.2798 6.91026C14.5211 6.4377 14.9659 6.10198 15.4865 5.99945ZM6.03601 21.3203C8.18504 22.3674 10.5701 21.5613 12.1258 18.4566C13.6931 15.3286 13.0848 12.533 10.9191 11.4759C8.03546 10.0698 5.59224 12.7291 4.67312 14.5574C3.10247 17.6854 3.84209 20.2217 6.00276 21.302L6.03601 21.3203ZM75.1277 9.35684C75.7083 9.34578 76.2735 9.54401 76.7199 9.91529C77.1861 10.3597 77.3325 11.0443 77.0889 11.6405C76.8596 12.1922 76.3442 12.572 75.7493 12.6278C75.3365 12.6618 75.0975 12.5216 74.8698 12.3879C74.619 12.2408 74.3818 12.1016 73.941 12.2122C73.3742 12.3635 71.187 14.5042 71.162 16.8511L71.1271 20.8716C71.1454 21.5497 71.2534 21.6361 71.5044 21.8023C71.6174 21.8827 71.7579 21.9321 71.8977 21.9814C72.2062 22.09 72.5116 22.1976 72.5116 22.6333C72.5116 23.2666 72.0878 23.2865 71.3066 23.2865H68.0457H68.0339C67.2603 23.2866 66.8407 23.2866 66.8407 22.6333C66.8407 22.1798 67.1485 22.0769 67.4582 21.9733C67.5969 21.9269 67.7359 21.8804 67.8479 21.8023L67.8509 21.8002C68.1064 21.6222 68.2169 21.5452 68.2318 20.82L68.2917 14.6355L68.3083 12.6859C68.3083 11.9098 67.9941 11.4178 67.5853 11.1452C67.4271 11.0402 67.2734 10.9708 67.1345 10.9081C66.7875 10.7514 66.5332 10.6366 66.5332 10.1131C66.5332 9.57789 66.9853 9.28204 67.68 9.28204H69.1011C70.6749 9.28204 70.6741 9.4503 70.6663 10.9961C70.6657 11.1121 70.6651 11.2359 70.6651 11.3679V13.3042C70.9762 12.7275 71.3254 12.1723 71.7105 11.6422C73.0269 9.97512 73.926 9.35684 75.1277 9.35684ZM105.508 21.7927L105.51 21.794C105.624 21.8732 105.765 21.9211 105.904 21.9687C106.212 22.0739 106.516 22.1774 106.516 22.6134C106.516 23.2466 106.09 23.2466 105.306 23.2466H103.438C102.445 23.2284 102.329 22.9126 102.312 22.2311V21.6843C102.312 21.6843 100.755 23.4943 97.3628 23.4943H97.273C93.8675 23.4644 92.3384 21.3037 92.3583 19.3092C92.3949 15.7441 97.1717 14.107 101.594 14.0954H102.056L102.033 13.635C101.947 11.8233 100.757 10.6782 98.9285 10.6599H98.8703C97.9008 10.6599 97.3344 11.1622 96.8619 11.5812L96.8619 11.5813L96.8618 11.5813C96.726 11.7018 96.5979 11.8153 96.4703 11.9081C96.4225 11.9434 96.3742 11.9799 96.3251 12.0168C95.8254 12.3937 95.251 12.8269 94.3595 12.7391C93.462 12.651 93.3439 11.8449 93.437 11.3463C93.5733 10.6283 94.3362 10.1596 95.0825 9.88537C96.2594 9.48666 97.4966 9.2949 98.739 9.31861C100.768 9.34354 102.193 9.73911 103.345 10.507C104.624 11.3613 105.14 12.3851 105.14 14.363L105.128 20.6306C105.128 21.5278 105.231 21.5992 105.508 21.7927ZM98.8454 21.927C100.891 21.927 101.917 20.3031 101.99 18.8904L102.02 15.4599H101.566C100.052 15.4882 98.6293 15.9485 97.6088 16.7164C96.5883 17.4843 95.9983 18.3203 95.9883 19.3275C95.9883 20.717 97.1351 21.9103 98.8138 21.927H98.8454ZM129.105 14.9098C129.363 14.9807 129.636 15.0499 129.924 15.1175C132.105 15.6361 134.36 16.1746 134.337 18.9718C134.307 22.0466 131.139 23.5192 128.48 23.5192C127.145 23.507 125.846 23.0916 124.752 22.3275C123.796 21.6278 123.397 20.8732 123.298 20.4045C123.062 19.281 123.932 18.8804 124.597 19.1896C125.05 19.3938 125.194 19.6761 125.462 20.2023C125.524 20.3228 125.591 20.456 125.671 20.604C126.454 22.055 127.629 22.1397 128.448 22.1397C129.357 22.1397 131.046 21.6278 131.046 19.9475C131.046 18.6427 129.47 18.184 127.808 17.7768L127.476 17.6937C125.312 17.1752 123.093 16.6267 123.121 13.851C123.151 10.7762 126.319 9.30365 128.978 9.30365C130.311 9.31658 131.609 9.7307 132.703 10.492C133.273 10.8809 133.728 11.4144 134.023 12.0377C134.432 12.9934 133.631 13.6832 132.828 13.4123C132.445 13.2822 132.193 12.8672 131.796 12.2136C131.757 12.149 131.717 12.082 131.674 12.0128C130.961 10.8494 129.582 10.6832 129.007 10.6832C128.098 10.6832 126.409 11.1967 126.409 12.8754C126.409 14.0355 127.662 14.5275 129.105 14.9098Z" fill="#1E1915"/>
</svg>
